<svg width="680" height="220" viewBox="0 0 680 220" xmlns="http://www.w3.org/2000/svg">
  <defs>
    <linearGradient id="bg" x1="0" y1="0" x2="1" y2="0">
      <stop offset="0%" stop-color="#1a0810"/>
      <stop offset="100%" stop-color="#0d0418"/>
    </linearGradient>
    <linearGradient id="hfill" x1="0" y1="0" x2="0" y2="1">
      <stop offset="0%" stop-color="#ff2d55"/>
      <stop offset="100%" stop-color="#c0002a"/>
    </linearGradient>
    <clipPath id="hclip">
      <path d="M56,95 C56,95 20,72 20,48 C20,34 30,26 42,26 C49,26 54,30 56,34 C58,30 63,26 70,26 C82,26 92,34 92,48 C92,72 56,95 56,95 Z"/>
    </clipPath>
  </defs>

  <rect width="680" height="220" fill="url(#bg)" rx="16"/>
  <rect width="680" height="220" fill="none" stroke="rgba(255,45,85,0.18)" stroke-width="1" rx="16"/>

  <circle cx="56" cy="56" r="70" fill="none" stroke="rgba(255,45,85,0.06)" stroke-width="1"/>
  <circle cx="56" cy="56" r="95" fill="none" stroke="rgba(255,45,85,0.04)" stroke-width="1"/>
  <circle cx="600" cy="180" r="60" fill="none" stroke="rgba(168,85,247,0.05)" stroke-width="1"/>

  <path d="M56,95 C56,95 20,72 20,48 C20,34 30,26 42,26 C49,26 54,30 56,34 C58,30 63,26 70,26 C82,26 92,34 92,48 C92,72 56,95 56,95 Z"
        fill="rgba(30,8,18,0.9)" stroke="rgba(255,45,85,0.4)" stroke-width="2"/>
  <rect x="20" y="40" width="72" height="55" clip-path="url(#hclip)" fill="url(#hfill)" opacity="0.88"/>

  <text x="56" y="60" text-anchor="middle" fill="white" font-size="15" font-weight="700" font-family="system-ui,sans-serif">72</text>
  <text x="56" y="74" text-anchor="middle" fill="rgba(255,255,255,0.55)" font-size="9" font-family="system-ui,sans-serif">/100</text>

  <text x="104" y="50" fill="#ff2d55" font-size="11" font-weight="600" font-family="system-ui,sans-serif">Романтика</text>
  <text x="104" y="66" fill="rgba(255,255,255,0.3)" font-size="10" font-family="system-ui,sans-serif">любовь растёт…</text>

  <text x="130" y="118" fill="white" font-size="42" font-weight="700" font-family="system-ui,sans-serif" letter-spacing="-1">Love Score</text>
  <text x="131" y="145" fill="rgba(255,255,255,0.38)" font-size="15" font-family="system-ui,sans-serif">расширение для SillyTavern</text>

  <line x1="130" y1="160" x2="560" y2="160" stroke="rgba(255,45,85,0.15)" stroke-width="1"/>

  <rect x="130" y="173" width="90" height="24" rx="12" fill="rgba(255,45,85,0.12)" stroke="rgba(255,45,85,0.3)" stroke-width="0.8"/>
  <text x="175" y="189" text-anchor="middle" fill="#ff7a94" font-size="11" font-family="system-ui,sans-serif">виджет-сердце</text>

  <rect x="230" y="173" width="86" height="24" rx="12" fill="rgba(168,85,247,0.1)" stroke="rgba(168,85,247,0.3)" stroke-width="0.8"/>
  <text x="273" y="189" text-anchor="middle" fill="#c084fc" font-size="11" font-family="system-ui,sans-serif">AI генерация</text>

  <rect x="326" y="173" width="90" height="24" rx="12" fill="rgba(255,157,46,0.1)" stroke="rgba(255,157,46,0.3)" stroke-width="0.8"/>
  <text x="371" y="189" text-anchor="middle" fill="#ffb566" font-size="11" font-family="system-ui,sans-serif">NPC окружение</text>

  <rect x="426" y="173" width="68" height="24" rx="12" fill="rgba(0,196,154,0.1)" stroke="rgba(0,196,154,0.3)" stroke-width="0.8"/>
  <text x="460" y="189" text-anchor="middle" fill="#34d9b3" font-size="11" font-family="system-ui,sans-serif">SlowBurn</text>

  <text x="550" y="50" fill="rgba(255,45,85,0.12)" font-size="40" font-family="system-ui,sans-serif">♥</text>
  <text x="590" y="130" fill="rgba(168,85,247,0.1)" font-size="28" font-family="system-ui,sans-serif">♥</text>
  <text x="620" y="80" fill="rgba(255,45,85,0.07)" font-size="20" font-family="system-ui,sans-serif">♥</text>

  <text x="645" y="205" text-anchor="end" fill="rgba(255,255,255,0.15)" font-size="10" font-family="system-ui,sans-serif">v1.2.0</text>
</svg>
